<svg xmlns="http://www.w3.org/2000/svg" fill="none" viewBox="0 0 283 64"><path fill="black" d="M141 16c-11 0-19 7-19 18s9 18 20 18c7 0 13-3 16-7l-7-5c-2 3-6 4-9 4-5 0-9-3-10-7h28v-3c0-11-8-18-19-18zm-9 15c1-4 4-7 9-7s8 3 9 7h-18zm117-15c-11 0-19 7-19 18s9 18 20 18c7 0 13-3 16-7l-7-5c-2 3-6 4-9 4-5 0-9-3-10-7h28v-3c0-11-8-18-19-18zm-9 15c1-4 4-7 9-7s8 3 9 7h-18zm-39 3c0 6 4 10 10 10 4 0 7-2 8-4l7 5c-3 4-8 7-15 7-11 0-19-7-19-18s8-18 19-18c7 0 12 3 15 7l-7 5c-1-2-4-4-8-4-6 0-10 4-10 10zm-41 18h9V2h-9v49zm-20 0h9V16h-9v33zm4-52c-3 0-6 3-6 6s3 6 6 6 6-3 6-6-3-6-6-6zm79 52h9V2h-9v49zm27-34c-7 0-11 4-11 10v24h9V31c0-3 2-5 5-5 3 0 5 2 5 5v20h9V31c0-6-4-10-11-10h-6zM0 51l22-37h-9L0 34V0h-1v51h1zm22 0L0 14h9l13 20v17h-1V51h1z"/></svg>
